<svg width="174" height="44" viewBox="0 0 174 44" fill="none" xmlns="http://www.w3.org/2000/svg">
<path d="M0 42.862L0.755259 42.4175C0.915025 42.8472 1.22003 43.1138 1.78648 43.1138C2.30935 43.1138 2.49816 42.8916 2.49816 42.6398C2.49816 42.299 2.19316 42.1657 1.53957 41.9731C0.842404 41.7657 0.188815 41.4694 0.188815 40.6101C0.188815 39.7509 0.885977 39.2472 1.65576 39.2472C2.38197 39.2472 2.94841 39.6324 3.25342 40.2694L2.51269 40.699C2.35292 40.3583 2.10601 40.1213 1.65576 40.1213C1.29265 40.1213 1.07479 40.3138 1.07479 40.5805C1.07479 40.862 1.24908 41.0101 1.9172 41.2175C2.62888 41.4398 3.36962 41.6916 3.36962 42.6101C3.36962 43.4546 2.7015 43.9879 1.75743 43.9879C0.842404 43.9879 0.246912 43.5435 0 42.862Z" fill="#49A2FB"/>
<path d="M9.36811 41.6175C9.36811 40.7435 8.74357 40.1213 7.93022 40.1213C7.11686 40.1213 6.49232 40.7435 6.49232 41.6175C6.49232 42.4916 7.11686 43.099 7.93022 43.099C8.74357 43.099 9.36811 42.4916 9.36811 41.6175ZM5.62087 41.6175C5.62087 40.2842 6.65209 39.2472 7.93022 39.2472C9.20835 39.2472 10.2541 40.2842 10.2541 41.6175C10.2541 42.9509 9.22287 43.9879 7.93022 43.9879C6.63756 43.9879 5.62087 42.9509 5.62087 41.6175Z" fill="#49A2FB"/>
<path d="M13.6673 40.1953V41.2768H15.3957V42.1361H13.6673V43.899H12.7813V39.3509H15.4392V40.1953H13.6673Z" fill="#49A2FB"/>
<path d="M20.9439 40.1953H19.7384V43.899H18.8669V40.1953H17.6614V39.3509H20.9439V40.1953Z" fill="#49A2FB"/>
<path d="M23.0354 39.3509H23.9504L24.8073 42.7138L25.7369 39.3509H26.4922L27.4217 42.7138L28.2786 39.3509H29.2082L27.9591 43.899H26.9569L26.1145 40.8916L25.2866 43.899H24.2845L23.0354 39.3509Z" fill="#49A2FB"/>
<path d="M33.6962 42.2398L33.0861 40.3879L32.4761 42.2398H33.6962ZM33.9721 43.0694H32.2002L31.9387 43.8842H30.9947L32.5342 39.3509H33.6235L35.1922 43.899H34.2336L33.9721 43.0694Z" fill="#49A2FB"/>
<path d="M38.4165 41.5287H39.317C39.6511 41.5287 39.927 41.2324 39.927 40.8472C39.927 40.4768 39.6511 40.1805 39.317 40.1805H38.4165V41.5287ZM39.0846 42.3138H38.4165V43.899H37.5306V39.3509H39.317C40.1449 39.3509 40.7985 40.0324 40.7985 40.862C40.7985 41.4398 40.4499 41.9435 39.9416 42.1953L40.9292 43.9138H39.9851L39.0846 42.3138Z" fill="#49A2FB"/>
<path d="M46.1289 43.0398V43.899H43.3693V39.3509H46.0853V40.1953H44.2407V41.1731H45.9255V42.0175H44.2407V43.0398H46.1289Z" fill="#49A2FB"/>
<path d="M54.8714 43.0398V43.899H52.1118V39.3509H54.8424V40.1953H52.9978V41.1731H54.6826V42.0176H52.9978V43.0398H54.8714Z" fill="#0067DC"/>
<path d="M60.8699 39.3509V43.899H60.2018L58.2846 41.1138V43.899H57.4132V39.3509H58.0813L59.9839 42.1213V39.3509H60.8699Z" fill="#0067DC"/>
<path d="M67.9868 41.7953C67.9868 43.1138 67.0717 43.9731 65.7936 43.9731C64.3993 43.9731 63.4116 42.9064 63.4116 41.6176C63.4116 40.299 64.4138 39.2472 65.75 39.2472C66.5924 39.2472 67.3187 39.6768 67.6963 40.299L66.941 40.7435C66.7377 40.3731 66.2874 40.1064 65.75 40.1064C64.9076 40.1064 64.2976 40.7435 64.2976 41.6027C64.2976 42.4472 64.8931 43.0842 65.8227 43.0842C66.5198 43.0842 66.9701 42.7435 67.1298 42.225H65.7791V41.425H68.0158V41.7953H67.9868Z" fill="#0067DC"/>
<path d="M70.514 43.899H71.4V39.3509H70.514V43.899Z" fill="#0067DC"/>
<path d="M77.6018 39.3509V43.899H76.9337L75.0165 41.1138V43.899H74.1305V39.3509H74.7986L76.7158 42.1213V39.3509H77.6018Z" fill="#0067DC"/>
<path d="M83.0919 43.0398V43.899H80.3323V39.3509H83.0629V40.1953H81.2183V41.1731H82.9031V42.0176H81.2183V43.0398H83.0919Z" fill="#0067DC"/>
<path d="M88.3788 43.0398V43.899H85.6192V39.3509H88.3497V40.1953H86.5051V41.1731H88.1899V42.0176H86.5051V43.0398H88.3788Z" fill="#0067DC"/>
<path d="M91.7919 41.5287H92.6924C93.0265 41.5287 93.3025 41.2324 93.3025 40.8472C93.3025 40.4768 93.0265 40.1805 92.6924 40.1805H91.7919V41.5287ZM92.4601 42.3138H91.7919V43.899H90.906V39.3509H92.6924C93.5203 39.3509 94.1739 40.0324 94.1739 40.862C94.1739 41.4398 93.8253 41.9435 93.317 42.1953L94.3046 43.9139H93.3606L92.4601 42.3138Z" fill="#0067DC"/>
<path d="M96.7302 43.899H97.6161V39.3509H96.7302V43.899Z" fill="#0067DC"/>
<path d="M103.818 39.3509V43.899H103.15L101.233 41.1138V43.899H100.361V39.3509H101.029L102.932 42.1213V39.3509H103.818Z" fill="#0067DC"/>
<path d="M110.935 41.7953C110.935 43.1138 110.02 43.9731 108.742 43.9731C107.347 43.9731 106.36 42.9064 106.36 41.6176C106.36 40.299 107.362 39.2472 108.698 39.2472C109.541 39.2472 110.267 39.6768 110.644 40.299L109.889 40.7435C109.686 40.3731 109.236 40.1064 108.698 40.1064C107.856 40.1064 107.246 40.7435 107.246 41.6027C107.246 42.4472 107.841 43.0842 108.771 43.0842C109.468 43.0842 109.918 42.7435 110.078 42.225H108.727V41.425H110.964V41.7953H110.935Z" fill="#0067DC"/>
<path d="M119.467 43.0398V43.899H116.896V39.3509H117.768V43.0398H119.467Z" fill="#0044C6"/>
<path d="M124.333 42.2398L123.723 40.3731L123.113 42.225H124.333V42.2398ZM124.609 43.0694H122.837L122.575 43.8842H121.617L123.171 39.3509H124.26L125.829 43.899H124.87L124.609 43.0694Z" fill="#0044C6"/>
<path d="M130.578 42.5213C130.578 42.2101 130.36 41.9879 130.055 41.9879H129.039V43.0546H130.055C130.36 43.0546 130.578 42.8324 130.578 42.5213ZM129.053 40.1805V41.1879H129.939C130.215 41.1879 130.419 40.9805 130.419 40.6842C130.419 40.3879 130.215 40.1805 129.939 40.1805H129.053ZM131.45 42.5805C131.45 43.3657 130.825 43.899 130.055 43.899H128.167V39.3509H129.925C130.68 39.3509 131.275 39.8694 131.275 40.625C131.275 41.0101 131.116 41.3213 130.854 41.5287C131.232 41.7361 131.45 42.1064 131.45 42.5805Z" fill="#0044C6"/>
<path d="M137.492 41.6175C137.492 40.7435 136.867 40.1213 136.054 40.1213C135.241 40.1213 134.616 40.7435 134.616 41.6175C134.616 42.4916 135.241 43.099 136.054 43.099C136.853 43.1138 137.492 42.4916 137.492 41.6175ZM133.73 41.6175C133.73 40.2842 134.761 39.2472 136.039 39.2472C137.318 39.2472 138.363 40.2842 138.363 41.6175C138.363 42.9509 137.332 43.9879 136.039 43.9879C134.747 43.9879 133.73 42.9509 133.73 41.6175Z" fill="#0044C6"/>
<path d="M141.776 41.5287H142.677C143.011 41.5287 143.287 41.2324 143.287 40.8472C143.287 40.4768 143.011 40.1805 142.677 40.1805H141.776V41.5287ZM142.445 42.3138H141.776V43.899H140.89V39.3509H142.677C143.505 39.3509 144.158 40.0324 144.158 40.862C144.158 41.4398 143.81 41.9435 143.301 42.1953L144.289 43.9138H143.345L142.445 42.3138Z" fill="#0044C6"/>
<path d="M149.053 42.2398L148.443 40.3879L147.833 42.2398H149.053ZM149.315 43.0694H147.543L147.281 43.8842H146.337L147.891 39.3361H148.98L150.549 43.8842H149.59L149.315 43.0694Z" fill="#0044C6"/>
<path d="M155.516 40.1953H154.311V43.899H153.425V40.1953H152.234V39.3509H155.516V40.1953Z" fill="#0044C6"/>
<path d="M161.21 41.6175C161.21 40.7435 160.585 40.1213 159.772 40.1213C158.959 40.1213 158.334 40.7435 158.334 41.6175C158.334 42.4916 158.959 43.099 159.772 43.099C160.585 43.099 161.21 42.4916 161.21 41.6175ZM157.463 41.6175C157.463 40.2842 158.494 39.2472 159.772 39.2472C161.065 39.2472 162.096 40.2842 162.096 41.6175C162.096 42.9509 161.065 43.9879 159.772 43.9879C158.479 43.9879 157.463 42.9509 157.463 41.6175Z" fill="#0044C6"/>
<path d="M165.494 41.5287H166.395C166.729 41.5287 167.005 41.2324 167.005 40.8472C167.005 40.4768 166.729 40.1805 166.395 40.1805H165.494V41.5287ZM166.163 42.3138H165.494V43.899H164.609V39.3509H166.395C167.223 39.3509 167.876 40.0324 167.876 40.862C167.876 41.4398 167.528 41.9435 167.02 42.1953L168.007 43.9138H167.063L166.163 42.3138Z" fill="#0044C6"/>
<path d="M172.321 42.1213V43.899H171.449V42.1213L169.924 39.3509H170.912L171.885 41.2472L172.844 39.3509H173.846L172.321 42.1213Z" fill="#0044C6"/>
<path d="M154.973 0C151.008 0 147.639 2.56296 146.346 6.16296L139.433 25.5111H120.29C119.781 25.5111 119.375 25.0963 119.375 24.5778C119.375 24.563 119.375 16.3704 119.375 0.0148148H110.195V25.5111C110.195 30.6815 114.306 34.8741 119.375 34.8741L145.838 34.9037L149.207 25.5111H160.74L162.991 31.7926C163.673 33.6889 165.416 34.8889 167.29 34.8889H173.855L163.644 6.28148C162.395 2.62222 158.997 0 154.973 0ZM154.567 9.36296L157.835 18.4889H151.313L154.567 9.36296Z" fill="url(#paint0_linear)"/>
<path d="M98.2706 0V22.1037C98.2706 22.6222 97.864 23.037 97.3556 23.037C97.0797 23.037 96.8182 22.9037 96.6585 22.7111L86.4479 4.66667C84.8503 1.8963 81.9019 0.0296296 78.5323 0.0296296C73.4633 0.0296296 69.353 4.22222 69.353 9.39259V25.5407H45.2428C44.7344 25.5407 44.3277 25.1259 44.3277 24.6074C44.3277 24.5926 44.3277 23.3778 44.3277 20.9778H66.4481V13.9556H44.3277V10.3704C44.3277 9.80741 44.7344 9.39259 45.2428 9.39259H66.4481V0.0296296H44.3277H35.1484V25.5259C35.1484 30.6963 39.2588 34.8889 44.3277 34.8889H69.353H78.5323V12.8593C78.5323 12.3407 78.9389 11.9259 79.4473 11.9259C79.7813 11.9259 80.0718 12.1037 80.2316 12.3704C80.2606 12.4296 80.2752 12.4593 80.2897 12.4741L90.3259 30.1926C91.9236 32.9926 94.8865 34.8741 98.2852 34.8741C103.354 34.8741 107.464 30.6815 107.464 25.5111V0H98.2706Z" fill="url(#paint1_linear)"/>
<path d="M9.22275 0.0295105C4.15381 0.0295105 0.043457 4.2221 0.043457 9.39247C0.043457 13.2591 2.33828 16.5777 5.62075 17.9999L18.954 23.7777C19.2445 23.9406 19.4333 24.2517 19.4333 24.5925C19.4333 25.0814 19.0556 25.4814 18.5909 25.5258H0.043457V34.8888H23.4419V34.8739C28.3221 34.6665 32.2291 30.5628 32.2291 25.5258C32.2291 21.4369 29.6583 17.9702 26.0854 16.6962L13.3912 11.1999C13.0426 11.0665 12.7957 10.7258 12.7957 10.3258C12.7957 9.83692 13.1733 9.43692 13.6381 9.39247H35.1339H37.8935C39.8688 9.39247 41.5536 8.1184 42.2072 6.3258L44.4585 0.0295105H9.22275Z" fill="url(#paint2_linear)"/>
<defs>
<linearGradient id="paint0_linear" x1="110.195" y1="34.9037" x2="173.855" y2="34.9037" gradientUnits="userSpaceOnUse">
<stop stop-color="#0044C6"/>
<stop offset="1" stop-color="#005CF1"/>
</linearGradient>
<linearGradient id="paint1_linear" x1="35.1484" y1="34.8889" x2="107.464" y2="34.8889" gradientUnits="userSpaceOnUse">
<stop stop-color="#0067DC"/>
<stop offset="1" stop-color="#1D7DE8"/>
</linearGradient>
<linearGradient id="paint2_linear" x1="0.043457" y1="34.8888" x2="44.4585" y2="34.8888" gradientUnits="userSpaceOnUse">
<stop stop-color="#49A2FB"/>
<stop offset="1" stop-color="#5BBAFB"/>
</linearGradient>
</defs>
</svg>
